<?xml version="1.0" encoding="UTF-8"?>
<svg xmlns="http://www.w3.org/2000/svg" xmlns:xlink="http://www.w3.org/1999/xlink" viewBox="0 0 50 50" width="50px" height="50px">
<g id="surface14185184">
<path style=" stroke:none;fill-rule:nonzero;fill:rgb(9.411765%,21.568628%,38.431373%);fill-opacity:1;" d="M 25 2 C 12.308594 2 2 12.308594 2 25 C 2 37.691406 12.308594 48 25 48 C 37.691406 48 48 37.691406 48 25 C 48 12.308594 37.691406 2 25 2 Z M 25 4 C 36.609375 4 46 13.390625 46 25 C 46 36.609375 36.609375 46 25 46 C 13.390625 46 4 36.609375 4 25 C 4 13.390625 13.390625 4 25 4 Z M 37.039062 10.988281 C 36.746094 10.980469 36.460938 11.101562 36.265625 11.320312 L 26.183594 22.242188 C 25.808594 22.082031 25.40625 22 25 22 C 23.34375 22 22 23.34375 22 25 C 22 26.65625 23.34375 28 25 28 C 25.167969 28 25.335938 27.988281 25.5 27.957031 L 29.125 34.484375 C 29.296875 34.800781 29.625 34.996094 29.984375 35 C 30.339844 35.007812 30.675781 34.820312 30.859375 34.515625 C 31.042969 34.207031 31.046875 33.828125 30.875 33.511719 L 27.246094 26.984375 C 27.730469 26.4375 28 25.730469 28 25 C 28 24.511719 27.878906 24.03125 27.652344 23.597656 L 37.734375 12.675781 C 38.003906 12.390625 38.082031 11.972656 37.933594 11.609375 C 37.78125 11.246094 37.433594 11.003906 37.039062 10.988281 Z M 37.039062 10.988281 "/>
</g>
</svg>
